<?xml version="1.0" encoding="utf-8"?>
<!-- Generator: Adobe Adobe Illustrator 24.2.0, SVG Export Plug-In . SVG Version: 6.00 Build 0)  -->
<svg version="1.1" xmlns="http://www.w3.org/2000/svg" xmlns:xlink="http://www.w3.org/1999/xlink" x="0px" y="0px" width="500px"
	 height="1024px" viewBox="0 0 500 1024" style="enable-background:new 0 0 500 1024;" xml:space="preserve">
<style type="text/css">
	.st0{display:none;}
	.st1{display:inline;}
	.st2{display:inline;fill:#D1ECFF;}
	.st3{fill:#070030;stroke:#000000;stroke-miterlimit:10;}
	.st4{display:none;fill:#8CC63F;stroke:#000000;stroke-miterlimit:10;}
	.st5{fill:#FFFF00;stroke:#000000;stroke-miterlimit:10;}
	.st6{display:inline;fill:#FF7542;stroke:#000000;stroke-miterlimit:10;}
	.st7{display:inline;fill:#FFCD42;stroke:#000000;stroke-miterlimit:10;}
	.st8{display:inline;fill:#F7F9FA;stroke:#000000;stroke-miterlimit:10;}
</style>
<g id="제거" class="st0">
	<g id="레이어_6" class="st1">
		<g id="낮_x2F_배경">
			<g id="밤_x2F_배경">
			</g>
		</g>
	</g>
</g>
<g id="배경" class="st0">
	<g id="낮">
		<rect class="st2" width="500" height="1024"/>
	</g>
	<g id="밤" class="st1">
		<g>
			<g>
				<defs>
					<rect id="SVGID_1_" width="500" height="1024"/>
				</defs>
				<clipPath id="SVGID_2_">
					<use xlink:href="#SVGID_1_"  style="overflow:visible;"/>
				</clipPath>
			</g>
		</g>
	</g>
</g>
<g id="언덕">
	<path id="밤_언덕" class="st3" d="M0,500.89c0,0,33.05-46.08,47.79-46.21c15.46-0.14,36.93,12.7,51.52,11.23
		c17.11-1.72,41.64-28.83,58.22-31.5c42.42-6.81,104.11,71.48,145.94,70.6c22.84-0.48,37.08-28.67,81.36-28.67
		c18.55,0,52.4,26.79,70.14,35.93c20.86,10.75,45.04-28.22,45.04-28.22V1024H0V500.89z"/>
	<path id="낮_언덕" class="st4" d="M-12.94,569.58c42.39-32.71,83.84-48.41,147.45-58.25c59.62-9.22,114.49-19.26,174.14-10.19
		c59.64,9.07,153.23,26.58,198.42,65.54v468.9H-7.85V569.13"/>
</g>
<g id="달">
	<path class="st5" d="M382.33,219.07c-9.48,4.28-12.54,15.52-13.74,25.41c-1.45,12.03-1.64,24.79,4.17,35.58
		c5.81,10.79,19.25,18.69,31.44,15.09c4.48-1.33,8.37-4.02,11.99-6.86c6.82-5.34,13.05-11.37,18.54-17.95
		c-7.09,2.26-14.99,1.38-21.93-1.25c-6.94-2.64-13.05-6.93-18.73-11.54c-6.02-4.9-11.82-10.45-14.72-17.46
		c-2.89-7.01-2.24-15.8,3.44-21.06"/>
</g>
<g id="해" class="st0">
	<path class="st6" d="M208.01,149.19c4.42-4.46,9.96-7.87,16.01-9.85c-2.55,6.46-5.27,12.87-8.16,19.2
		c8.39-1.66,17.08-1.9,25.56-0.71c-6.82,4.48-13.63,8.97-20.45,13.45c6.59,1.93,12.51,5.97,16.62,11.34
		c-7.45,1.37-14.97,2.39-22.52,3.06c4.7,5.97,7.37,13.44,7.48,20.95c-8.37-3.53-16.27-8.1-23.45-13.56
		c2.2,8.83,0.29,18.54-5.11,25.96c-7.14-8.34-11.43-18.95-12.02-29.78c-6.25,6.28-12.49,12.56-18.74,18.83
		c-3.1-5.04-2.44-11.6,0.17-16.9s6.91-9.59,11.14-13.79c-4.32,0.19-8.7-1.27-11.99-4c-1.61-1.33-2.95-2.94-4.28-4.54
		c-2.61-3.13-5.22-6.27-7.84-9.4c9.39,2.5,14.65,1.09,24.34,0.18c-5.65-8.46-4.28-16.19-4.63-26.27c1.31-1,3.16,0.2,4.34,1.34
		c5.46,5.25,9.48,6.87,14.94,12.13c4.13-7.48,9.7-11.33,13.82-18.81c3.95,6.52,6.17,14.02,6.38,21.58"/>
	<ellipse class="st7" cx="195.92" cy="170.2" rx="21.12" ry="19.97"/>
</g>
<g id="구름" class="st0">
	<path class="st8" d="M341.94,173.84c-8.98-1.22-18.93,2.14-23.81,9.78c-4.88,7.64-2.9,19.41,5.12,23.65
		c10,5.29,21.69-2.46,30.31-9.79c-7.18,8.68-3.86,23.22,5.51,29.47c9.37,6.25,22.6,4.72,31.66-1.98
		c7.77-5.74,12.59-17.91,5.92-24.91c1.3,4.4,6.34,6.48,10.89,7.08c17.17,2.29,35.12-9.55,39.77-26.23c0.41-1.45,0.71-3.04,0.16-4.45
		c-0.68-1.71-2.43-2.7-4.07-3.55c-6.24-3.26-13.81-6.53-19.99-3.15c2.64,4.12,8.99,0.08,11.36-4.2c5.91-10.69,7.91-23.5,5.53-35.48
		c-0.39-1.97-0.98-4.06-2.55-5.32c-1.64-1.33-3.93-1.4-6.05-1.41c-6.53-0.02-13.27,0.04-19.27,2.61c-6,2.57-11.14,8.31-10.94,14.84
		c2.11-12.57-9.62-25.5-22.33-24.62c-12.71,0.88-22.55,15.3-18.73,27.46c-6.3-4.57-14.03-9.38-21.34-6.72
		c-5.59,2.03-8.92,8.05-9.58,13.96c-1.1,9.72,4.23,19.86,12.86,24.46"/>
	<path class="st8" d="M60.5,64.46c-3.87-4.31-10.6-4.96-15.84-2.65S35.5,68.85,32.7,73.96c-4.14,7.55-5.86,17.96-0.06,24.25
		c4.1,4.44,10.85,5.34,16.62,3.82s10.8-5.08,15.69-8.56c-5.86,8.92-0.57,22.18,8.7,27.18c9.27,5,20.71,3.41,30.4-0.66
		c9.52-4,19.27-13,16.96-23.31c10.75,8.05,25.59,6.58,38.45,3.11c6.92-1.86,13.94-4.32,19.28-9.21c5.34-4.89,8.66-12.76,6.5-19.78
		s-11.02-11.55-17.06-7.6c6.22-4.53,6.79-13.82,5.37-21.53c-0.61-3.27-1.56-6.68-3.92-8.97c-3.49-3.39-8.94-3.33-13.65-2.38
		c-13.67,2.78-26.08,11.61-33.43,23.78c1.18-6.26-3.4-12.48-9.06-15.07c-5.67-2.59-12.13-2.38-18.31-1.93
		c-8.37,0.62-17.07,1.72-24.11,6.42S59.21,57.54,60.82,66.2c0.13-0.13,0.26-0.27,0.39-0.4"/>
</g>
</svg>
