<?xml version="1.0" encoding="utf-8"?>
<!-- Generator: Adobe Adobe Illustrator 24.2.0, SVG Export Plug-In . SVG Version: 6.00 Build 0)  -->
<svg version="1.1" id="레이어_1" xmlns="http://www.w3.org/2000/svg" xmlns:xlink="http://www.w3.org/1999/xlink" x="0px"
	 y="0px" width="500px" height="1024px" viewBox="0 0 500 1024" style="enable-background:new 0 0 500 1024;" xml:space="preserve">
<style type="text/css">
	.st0{stroke:#000000;stroke-miterlimit:10;}
	.st1{fill:#FBCEB1;stroke:#000000;stroke-miterlimit:10;}
	.st2{stroke:#000000;stroke-width:2;stroke-miterlimit:10;}
	.st3{fill:none;stroke:#000000;stroke-miterlimit:10;}
</style>
<path class="st0" d="M200.53,483.93l25.74,35.34l34.87-4.02l21.58-32.13c0,0,70.22,11.64,103.28,16.3
	c10.01,1.41,24.99,11.31,29.77,19.94c27.11,48.88,25.51,182.22,25.51,182.22s17.43,12.58,18.18,20.08
	c0.73,7.27-7.78,19.16-14.89,21.64c-7.62,2.65-23.76,4.9-30.69,0.85c-6.36-3.72-13.55-16.24-12.11-23.29
	c1.08-5.32,12.11-13.65,12.11-13.65s-12.64-119.83-41.62-147.59c-7.23-6.93-15.09,13.31-19.58,23.38
	c-18.46,41.43,3.08,119.88-22.36,167.44c-21.59,40.37-16.67,149.49,12.99,184.87c5.46,6.52,26.38,5.99,32.38,12.05
	c2.62,2.65,2.49,14.46,2.49,14.46l-57.28-4.02l-80.53-191.95l-53.13,191.95l-60.6,0.8c0,0-0.11-13.44,3.23-18.56
	c3.3-5.05,13.03-9.48,17.52-13.57c32.78-29.86,25.79-132.95,1.02-171.92c-24.12-37.95,8.05-137.52-11.22-181.57
	c-5.09-11.63-2.8-20.71-11.34-14.78c-33.85,23.5-44.05,145.8-44.05,145.8s7.78,7.16,8.1,13.56c0.31,6.25-1.63,17.11-7.27,20.17
	c-7.47,4.06-24.53,4.11-32.35,0.71c-8.05-3.5-11.44-16.49-9.05-24.71c1.37-4.72,9.85-14.55,9.85-14.55s-8.72-94.12,12.52-141.78
	c3.81-8.54,24.49-55.29,33.69-57.99c31.75-9.3,104.88-15.48,104.88-15.48"/>
<path class="st1" d="M200.98,429.05c0,0-2.76,73.36,6.64,90.08c6.87,12.22,26.54,19.51,40.72,18.14
	c7.56-0.73,27.77-12.36,30.89-19.14c10.71-23.3,0.88-106.13,0.88-106.13L200.98,429.05z"/>
<path id="얼굴" class="st1" d="M212.41,163.27c-23.62,11.62-61.83,52.02-70.78,76.03c-3.68,9.89-3.11,24.7-1.82,40.09
	c1.58,18.89,4.24,38.66,1.44,51.27c-4.67,20.97-22.06,62.18-12.62,81.62c7.66,15.78,37.11,33.18,55.09,35.29
	c36.38,4.27,105.8-27.39,133.8-50.12c20.95-17,44.82-65.9,47.85-92.09c3.45-29.84-17.11-90.69-35.07-115.25
	c-9.54-13.05-40.85-28.65-56.81-33.03C258.72,153.03,226.07,156.54,212.41,163.27z"/>
<path id="머리" class="st0" d="M98.52,39.16c-9.48,23.45,40.06,204.06,40.06,204.06s25.32-39.18,36.76-49.65
	c13.15-12.03,43.2-34.96,61.02-37.42c16.96-2.34,52.37,5.52,66.9,14.39c10.59,6.46,28.25,24.46,35.29,34.54
	c5.75,8.24,19.98,96.88,27.19,89.83c20.33-19.9,45.58-211.08,32.37-235.19c-8.37-15.27-50.76,89.79-77.12,84.74
	c-27.59-5.29-12.58-101.3-28.75-102.02c-21.06-0.94-26.62,84.4-46.43,79.72c-16.58-3.91-15.81-81.88-29.29-78.28
	c-27.25,7.26-30.01,94.04-42.11,111.46C165.82,167.72,104.76,23.72,98.52,39.16z"/>
<g id="선글라스">
	<path class="st0" d="M150.04,271.71c-0.47,9.26-0.44,18.85,3.29,27.39c3.73,8.54,12.03,15.82,21.6,15.87
		c3.66,0.02,7.25-1,10.61-2.39c14.94-6.17,26.02-20.36,28.1-35.97c0.59-4.47,0.34-9.45-2.73-12.83c-1.95-2.16-4.78-3.36-7.55-4.37
		c-5.34-1.96-10.93-3.5-16.64-3.6c-7.36-0.13-14.51,2.13-21.5,4.36c-4.27,1.36-8.71,2.82-11.93,5.86
		c-3.23,3.04-4.84,8.16-2.45,11.86"/>
	<path class="st0" d="M306.28,271.71c0.47,9.26,0.44,18.85-3.29,27.39s-12.03,15.82-21.6,15.87c-3.66,0.02-7.25-1-10.61-2.39
		c-14.94-6.17-26.02-20.36-28.1-35.97c-0.59-4.47-0.34-9.45,2.73-12.83c1.95-2.16,4.78-3.36,7.55-4.37
		c5.34-1.96,10.93-3.5,16.64-3.6c7.36-0.13,14.51,2.13,21.5,4.36c4.27,1.36,8.71,2.82,11.93,5.86c3.23,3.04,4.84,8.16,2.45,11.86"/>
	<path class="st2" d="M212.76,277.33c12.22-1.2,24.54-1.36,36.78-0.48"/>
	<line class="st2" x1="303.35" y1="279.81" x2="357.67" y2="265.6"/>
	<line class="st2" x1="149.49" y1="276.36" x2="139.47" y2="273.81"/>
	<path class="st3" d="M162.49,390.97c13.02,7.65,28.59,9.89,43.75,10.77c11.3,0.66,22.73,0.63,33.8-1.64
		c11.07-2.27,21.84-6.91,30.03-14.56"/>
	<path class="st3" d="M219.99,321.73c1.67,4.31,0.51,9.17-1.25,13.44c-1.76,4.27-4.13,8.38-4.94,12.92c-0.2,1.15-0.3,2.37,0.1,3.47
		c0.8,2.19,3.42,3.33,5.8,3.22s4.58-1.2,6.7-2.27"/>
</g>
</svg>
