<?xml version="1.0" encoding="utf-8"?>
<!-- Generator: Adobe Adobe Illustrator 24.2.0, SVG Export Plug-In . SVG Version: 6.00 Build 0)  -->
<svg version="1.1" id="레이어_1" xmlns="http://www.w3.org/2000/svg" xmlns:xlink="http://www.w3.org/1999/xlink" x="0px"
	 y="0px" width="500px" height="1024px" viewBox="0 0 500 1024" style="enable-background:new 0 0 500 1024;" xml:space="preserve">
<style type="text/css">
	.st0{stroke:#000000;stroke-miterlimit:10;}
	.st1{fill:#FBCEB1;stroke:#000000;stroke-miterlimit:10;}
	.st2{stroke:#000000;stroke-width:2;stroke-miterlimit:10;}
	.st3{fill:none;stroke:#000000;stroke-miterlimit:10;}
</style>
<path class="st0" d="M214.34,493.84l18.55,25.36l25.13-2.88l15.56-23.06c0,0,50.61,8.35,74.44,11.7
	c7.22,1.01,18.01,8.12,21.46,14.31c19.54,35.08,18.39,130.78,18.39,130.78s12.56,9.03,13.1,14.41c0.52,5.22-5.61,13.75-10.73,15.53
	c-5.49,1.9-17.12,3.52-22.12,0.61c-4.58-2.67-9.77-11.65-8.73-16.72c0.78-3.82,8.73-9.8,8.73-9.8s-9.11-86-30-105.92
	c-5.21-4.97-10.87,9.55-14.11,16.78c-13.31,29.73,2.22,86.04-16.11,120.17c-15.56,28.97-12.01,107.29,9.37,132.68
	c3.94,4.68,19.01,4.3,23.34,8.65c1.89,1.9,1.8,10.38,1.8,10.38l-41.29-2.88l-58.04-137.76l-38.29,137.76l-43.68,0.58
	c0,0-0.08-9.65,2.33-13.32c2.38-3.62,9.39-6.8,12.63-9.74c23.63-21.43,18.59-95.42,0.74-123.39c-17.38-27.24,5.81-98.69-8.09-130.31
	c-3.67-8.34-2.02-14.86-8.18-10.61c-24.4,16.86-31.75,104.64-31.75,104.64s5.61,5.14,5.84,9.73c0.22,4.48-1.18,12.28-5.24,14.48
	c-5.39,2.92-17.68,2.95-23.32,0.51c-5.81-2.51-8.24-11.83-6.52-17.73c0.99-3.39,7.1-10.44,7.1-10.44s-6.28-67.55,9.02-101.76
	c2.74-6.13,17.65-39.68,24.29-41.62c22.89-6.67,75.59-11.11,75.59-11.11"/>
<path class="st1" d="M214.67,454.45c0,0-1.99,52.65,4.78,64.65c4.95,8.77,19.13,14,29.35,13.02c5.45-0.52,20.02-8.87,22.26-13.74
	c7.72-16.72,0.64-76.17,0.64-76.17L214.67,454.45z"/>
<path id="얼굴" class="st1" d="M222.9,263.71c-17.03,8.34-44.57,37.33-51.01,54.57c-2.65,7.1-2.24,17.73-1.31,28.77
	c1.14,13.56,3.06,27.75,1.04,36.79c-3.36,15.05-15.9,44.63-9.1,58.57c5.52,11.32,26.75,23.81,39.71,25.33
	c26.22,3.07,76.25-19.66,96.43-35.97c15.1-12.2,32.31-47.3,34.49-66.09c2.49-21.41-12.33-65.09-25.27-82.71
	c-6.88-9.37-29.44-20.56-40.94-23.7C256.28,256.36,232.75,258.88,222.9,263.71z"/>
<path id="머리" class="st0" d="M140.82,174.64c-6.83,16.83,28.87,146.45,28.87,146.45s18.25-28.12,26.5-35.64
	c9.48-8.64,31.13-25.09,43.98-26.86c12.22-1.68,37.75,3.96,48.22,10.33c7.63,4.64,20.36,17.55,25.44,24.79
	c4.15,5.91,14.4,69.53,19.59,64.47c14.66-14.28,32.86-151.49,23.33-168.79c-6.04-10.96-36.59,64.44-55.58,60.82
	c-19.89-3.79-9.07-72.7-20.72-73.21c-15.18-0.67-19.18,60.57-33.47,57.22c-11.95-2.81-11.4-58.76-21.11-56.18
	c-19.64,5.21-21.63,67.49-30.35,80C189.32,266.9,145.32,163.55,140.82,174.64z"/>
<g id="선글라스">
	<path class="st0" d="M177.95,341.53c-0.34,6.65-0.32,13.53,2.37,19.66s8.67,11.36,15.57,11.39c2.64,0.01,5.23-0.72,7.65-1.71
		c10.77-4.43,18.76-14.61,20.25-25.81c0.43-3.21,0.24-6.78-1.97-9.21c-1.41-1.55-3.44-2.41-5.44-3.14
		c-3.85-1.41-7.88-2.51-11.99-2.58c-5.3-0.09-10.46,1.53-15.49,3.13c-3.08,0.98-6.28,2.02-8.6,4.21c-2.33,2.18-3.49,5.86-1.76,8.51"
		/>
	<path class="st0" d="M290.56,341.53c0.34,6.65,0.32,13.53-2.37,19.66c-2.69,6.13-8.67,11.36-15.57,11.39
		c-2.64,0.01-5.23-0.72-7.65-1.71c-10.77-4.43-18.76-14.61-20.25-25.81c-0.43-3.21-0.24-6.78,1.97-9.21
		c1.41-1.55,3.44-2.41,5.44-3.14c3.85-1.41,7.88-2.51,11.99-2.58c5.3-0.09,10.46,1.53,15.49,3.13c3.08,0.98,6.28,2.02,8.6,4.21
		c2.33,2.18,3.49,5.86,1.76,8.51"/>
	<path class="st2" d="M223.16,345.57c8.8-0.86,17.69-0.98,26.51-0.35"/>
	<line class="st2" x1="288.45" y1="347.34" x2="327.6" y2="337.15"/>
	<line class="st2" x1="177.55" y1="344.87" x2="170.34" y2="343.04"/>
	<path class="st3" d="M186.92,427.12c9.39,5.49,20.61,7.1,31.54,7.73c8.14,0.47,16.38,0.46,24.36-1.17
		c7.98-1.63,15.74-4.96,21.64-10.45"/>
	<path class="st3" d="M228.37,377.44c1.21,3.09,0.37,6.58-0.9,9.65c-1.27,3.07-2.98,6.01-3.56,9.27c-0.15,0.83-0.22,1.7,0.07,2.49
		c0.58,1.58,2.46,2.39,4.18,2.31c1.71-0.08,3.3-0.86,4.83-1.63"/>
</g>
</svg>
