<?xml version="1.0" encoding="utf-8"?>
<!-- Generator: Adobe Adobe Illustrator 24.2.0, SVG Export Plug-In . SVG Version: 6.00 Build 0)  -->
<svg version="1.1" xmlns="http://www.w3.org/2000/svg" xmlns:xlink="http://www.w3.org/1999/xlink" x="0px" y="0px" width="500px"
	 height="1024px" viewBox="0 0 500 1024" style="enable-background:new 0 0 500 1024;" xml:space="preserve">
<style type="text/css">
	.st0{stroke:#000000;stroke-miterlimit:10;}
	.st1{fill:#DFE5E8;stroke:#000000;stroke-width:5;stroke-miterlimit:10;}
	.st2{stroke:#000000;stroke-width:4;stroke-miterlimit:10;}
	.st3{fill:none;stroke:#000000;stroke-width:5;stroke-miterlimit:10;}
	.st4{display:none;fill:none;stroke:#000000;stroke-width:5;stroke-miterlimit:10;}
	.st5{display:none;}
	.st6{display:inline;fill:none;stroke:#E6E6E6;stroke-width:2;stroke-miterlimit:10;}
	.st7{display:inline;fill:#FFFFFF;stroke:#E6E6E6;stroke-width:2;stroke-miterlimit:10;}
	.st8{display:inline;fill:#FFFFFF;stroke:#CFCFCF;stroke-miterlimit:10;}
	.st9{display:inline;fill:none;stroke:#CFCFCF;stroke-miterlimit:10;}
	.st10{display:inline;}
	.st11{fill:none;stroke:#000000;stroke-width:2;stroke-miterlimit:10;}
	.st12{display:inline;fill:#FF8B6B;stroke:#000000;stroke-width:5;stroke-miterlimit:10;}
	.st13{display:inline;fill:#FBCEB1;stroke:#000000;stroke-width:5;stroke-miterlimit:10;}
	.st14{fill:none;stroke:#29ABE2;stroke-width:5;stroke-miterlimit:10;}
	.st15{opacity:0.6118;fill:none;stroke:#000000;stroke-width:5;stroke-miterlimit:10;}
	.st16{opacity:0.6118;fill:#29ABE2;stroke:#000000;stroke-width:5;stroke-miterlimit:10;}
</style>
<g id="레이어_1">
	<path class="st0" d="M211.51,642.39l20.02,25.25l27.13-2.87l16.79-22.95c0,0,54.64,8.31,80.36,11.64
		c7.79,1.01,19.44,8.08,23.16,14.25c21.09,34.92,19.85,130.19,19.85,130.19s13.56,8.99,14.14,14.35c0.57,5.2-6.05,13.69-11.58,15.46
		c-5.93,1.9-18.48,3.5-23.88,0.61c-4.95-2.66-10.54-11.6-9.43-16.64c0.84-3.8,9.43-9.75,9.43-9.75s-9.83-85.61-32.39-105.45
		c-5.63-4.95-11.74,9.51-15.23,16.71c-14.36,29.6,11.32,108.31-8.39,133.62c-26.32,33.79-24.97,84.8-1.89,110.08
		c4.25,4.66,23.53,12.28,28.19,16.61c2.04,1.89,1.94,10.33,1.94,10.33s-44.35,5.4-50.57-3.87c-18.79-28-14.83-124.7-52.44-122.14
		c-35.73,2.43-31.68,96.54-41.56,121.14c-4.39,10.94-51.15,2.57-51.15,2.57s-0.09-9.6,2.51-13.26c2.57-3.6,22.73-1.98,25.37-5.69
		c19.35-27.18,10.1-76.53-14.01-116.83c-16.93-28.3,9.34-108.25-5.66-139.72c-3.96-8.31-2.18-14.79-8.83-10.56
		c-26.33,16.79-34.27,104.16-34.27,104.16s6.06,5.12,6.3,9.69c0.24,4.46-1.27,12.22-5.66,14.41c-5.81,2.9-19.08,2.93-25.17,0.51
		c-6.27-2.5-8.9-11.78-7.04-17.65c1.07-3.37,7.66-10.4,7.66-10.4s-6.78-67.24,9.74-101.29c2.96-6.1,19.05-39.5,26.22-41.43
		c24.7-6.64,81.6-11.06,81.6-11.06"/>
	<path class="st1" d="M211.86,603.18c0,0-2.15,52.41,5.17,64.35c5.34,8.73,20.65,13.94,31.68,12.96
		c5.88-0.52,21.61-8.83,24.03-13.67c8.33-16.65,0.69-75.82,0.69-75.82L211.86,603.18z"/>
	<path id="얼굴" class="st1" d="M220.75,413.3c-18.38,8.3-48.11,37.16-55.07,54.32c-2.86,7.06-2.42,17.65-1.42,28.64
		c1.23,13.5,3.3,27.62,1.12,36.63c-3.63,14.98-17.16,44.42-9.82,58.31c5.96,11.27,28.87,23.7,42.86,25.21
		c28.3,3.05,82.31-19.57,104.1-35.81c16.3-12.15,34.87-47.08,37.23-65.8c2.68-21.32-13.31-64.79-27.28-82.34
		c-7.42-9.33-31.78-20.47-44.2-23.59C256.78,405.98,231.38,408.5,220.75,413.3z"/>
	<path id="머리" class="st0" d="M132.14,324.63c-7.37,16.76,31.17,145.79,31.17,145.79s19.7-28,28.6-35.47
		c10.23-8.6,33.61-24.98,47.48-26.73c13.19-1.67,40.75,3.95,52.05,10.28c8.24,4.62,21.98,17.47,27.46,24.68
		c4.47,5.89,15.54,69.22,21.15,64.17c15.82-14.22,35.47-150.8,25.18-168.03c-6.52-10.91-39.49,64.15-60,60.54
		c-21.47-3.78-9.79-72.37-22.37-72.88c-16.39-0.67-20.71,60.3-36.13,56.96c-12.9-2.79-12.3-58.5-22.79-55.93
		c-21.2,5.19-23.35,67.19-32.76,79.63C184.5,416.48,137,313.6,132.14,324.63z"/>
	<g id="선글라스">
		<path class="st0" d="M172.22,490.77c-0.36,6.62-0.34,13.47,2.56,19.57c2.9,6.1,9.36,11.3,16.8,11.34
			c2.85,0.01,5.64-0.71,8.26-1.71c11.62-4.41,20.25-14.55,21.86-25.7c0.46-3.19,0.26-6.75-2.12-9.17c-1.52-1.54-3.72-2.4-5.87-3.12
			c-4.16-1.4-8.5-2.5-12.94-2.57c-5.72-0.09-11.29,1.52-16.72,3.11c-3.33,0.98-6.78,2.01-9.29,4.19c-2.51,2.17-3.77,5.83-1.9,8.47"
			/>
		<path class="st0" d="M293.79,490.77c0.36,6.62,0.34,13.47-2.56,19.57c-2.9,6.1-9.36,11.3-16.8,11.34
			c-2.85,0.01-5.64-0.71-8.26-1.71c-11.62-4.41-20.25-14.55-21.86-25.7c-0.46-3.19-0.26-6.75,2.12-9.17
			c1.52-1.54,3.72-2.4,5.87-3.12c4.16-1.4,8.5-2.5,12.94-2.57c5.72-0.09,11.29,1.52,16.72,3.11c3.33,0.98,6.78,2.01,9.29,4.19
			c2.51,2.17,3.77,5.83,1.9,8.47"/>
		<path class="st2" d="M221.03,494.79c9.5-0.86,19.09-0.97,28.62-0.35"/>
		<line class="st2" x1="291.51" y1="496.56" x2="333.77" y2="486.41"/>
		<line class="st2" x1="171.8" y1="494.1" x2="164" y2="492.27"/>
	</g>
	<path class="st3" d="M226.65,526.51c1.3,3.08,0.4,6.55-0.98,9.61c-1.37,3.05-3.22,5.99-3.84,9.23c-0.16,0.82-0.23,1.69,0.08,2.48
		c0.62,1.57,2.66,2.38,4.51,2.3c1.85-0.08,3.56-0.86,5.21-1.62"/>
	<path class="st4" d="M181.91,575.98c10.13,5.47,22.24,7.07,34.04,7.7c8.79,0.47,17.68,0.45,26.3-1.17
		c8.62-1.62,16.99-4.94,23.36-10.4"/>
</g>
<g id="레이어_9">
</g>
<g id="레이어_3" class="st5">
	<path class="st6" d="M175.77,548.89c-4.2-2.85-5.82-3.51-9.14-7.38"/>
	<polygon class="st7" points="227.38,534.41 176.76,546.37 165.15,573.78 181.55,601.4 233.88,607.43 266.39,596.64 282.05,561.29 
		261.96,541.04 	"/>
	<path class="st8" d="M172.82,561.83c32.12-7.53,65.23-10.05,98.01-7.45"/>
	<path class="st8" d="M168.99,576.58c10.56-3.5,21.7-2.02,32.62-2.27c9.44-0.21,18.83-1.73,28.2-3.25
		c13.89-2.25,27.78-4.5,41.66-6.75"/>
	<path class="st9" d="M179.21,590.65c10.45-0.31,20.9-0.61,31.34-0.92c18.4-0.54,37.12-1.13,54.57-6.75"/>
	<path class="st6" d="M265.12,544.24c16.33-10.86,31.77-22.97,46.13-36.17c7.09-6.52,14.17-11.92,22.89-15.22
		c5.04,2.9,6.84,9.39,5.76,14.95c-1.08,5.57-4.44,10.44-7.75,15.11c-2.44,3.44-4.9,6.89-7.77,10
		c-14.36,15.58-32.8,20.96-46.27,37.26"/>
	<line class="st6" x1="167.18" y1="567.8" x2="160.18" y2="559.8"/>
</g>
<g id="레이어_4" class="st5">
	<g id="레이어_6" class="st10">
		<path class="st3" d="M185.61,588.97c2.81-3.55,5.61-7.1,8.42-10.65c0.95-1.2,1.96-2.44,3.38-3c5.97-2.36,12.01,8.83,17.32,5.23
			c2.11-1.44,2.52-4.63,4.71-5.94c4.28-2.54,8.6,4.46,13.58,4.42c-0.92-4.1,3.6-7.8,7.8-7.62s7.81,2.93,10.92,5.75
			c3.12,2.81,6.24,5.92,10.28,7.09"/>
		<path class="st3" d="M246.66,455.47c-0.84,4.15-1.67,8.3-2.51,12.45c14.87-6.22,29.73-12.45,44.6-18.67"/>
		<path class="st3" d="M218.44,456.6c-1.18,3.32-2.35,6.64-3.53,9.97c-8.27-3.23-16.55-6.47-24.82-9.7"/>
		<path class="st11" d="M293,458.54c3.36,0.56,6.08,3.76,6.1,7.17s-2.68,6.63-6.03,7.22"/>
		<path class="st11" d="M306.64,454.28c-0.71,3.99-1.41,8.17-0.11,12.01c2.72-0.15,5.33-1.67,6.82-3.96"/>
		<path class="st11" d="M301.51,478.8c1.07-3.05,3.12-5.75,5.78-7.58c1.87,1.92,4.13,3.45,6.6,4.47"/>
	</g>
</g>
<g id="레이어_7" class="st5">
	<path class="st12" d="M251.86,465.68c13.65-2.24,27.24-4.89,40.73-7.96"/>
	<path class="st12" d="M218.61,465c-12.4,1.19-24.95,0.79-37.24-1.19"/>
	<path class="st12" d="M208.34,585.91c14.31-13.57,38.31-15.43,54.53-4.21"/>
</g>
<g id="레이어_5" class="st5">
	<path class="st13" d="M210.06,581.73c10.25-4.8,22.35-5.51,33.08-1.93"/>
	<path class="st13" d="M186.97,464.43c8.39-0.82,16.32-2.93,22.96-6.09"/>
	<path class="st13" d="M247.31,458.9c7.67,2.68,16.05,3.27,24.02,1.72"/>
	<path class="st14" d="M231.81,551.02c-0.72,5.95-0.98,11.95-0.77,17.94"/>
</g>
<g id="레이어_8">
	<path class="st15" d="M188.03,586.45c10.66,3.81,21.63,7.68,32.94,7.3c13.86-0.46,26.71-7.21,40.37-9.58"/>
	<polygon class="st16" points="128.38,223.75 94.42,354.83 124.8,480.55 56.88,639.05 81.9,865.46 112.89,1007.27 382.8,1008.46 
		441.19,830.31 416.17,636.66 425.11,477.57 354.2,281.54 	"/>
</g>
</svg>
